<?xml version="1.0" encoding="UTF-8"?>
<svg width="240px" height="28px" viewBox="0 0 240 28" version="1.1" xmlns="http://www.w3.org/2000/svg" xmlns:xlink="http://www.w3.org/1999/xlink">
    <!-- Generator: Sketch 54.1 (76490) - https://sketchapp.com -->
    <title>logo</title>
    <desc>Created with Sketch.</desc>
    <g id="Symbols" stroke="none" stroke-width="1" fill="none" fill-rule="evenodd">
        <g id="ヘッダー" transform="translate(-20.000000, -39.000000)" fill-rule="nonzero">
            <g transform="translate(0.000000, 25.000000)" id="logo">
                <g transform="translate(20.000000, 14.000000)">
                    <polygon id="Rectangle" fill="#61B63A" transform="translate(13.633022, 13.630756) rotate(-10.000000) translate(-13.633022, -13.630756) " points="1.8667879 1.86452205 25.3992554 1.86452205 25.3992554 25.3969896 1.8667879 25.3969896"></polygon>
                    <polygon id="Rectangle" fill="#FFFFFF" transform="translate(13.632376, 13.629979) rotate(2.000000) translate(-13.632376, -13.629979) " points="4.80847975 4.80608286 22.456272 4.80608286 22.456272 22.4538751 4.80847975 22.4538751"></polygon>
                    <path d="M48.187013,19.6363636 L35.8503896,19.6363636 L35.8503896,17.1428571 L48.187013,17.1428571 C48.5945031,17.1720036 48.9904196,16.9996635 49.2467532,16.6815584 C49.5144611,16.3217888 49.6548235,15.8831563 49.6457143,15.4348052 C49.6457143,15.2727273 49.6083117,13.8514286 48.398961,13.8514286 L39.4535065,13.8514286 C36.8602597,13.8514286 35.5075325,11.7631169 35.5075325,9.69974026 C35.4932344,8.68555082 35.8326848,7.69805858 36.4675325,6.90701299 C37.2039558,6.02292138 38.303162,5.52265634 39.4535065,5.54805195 L51.7402597,5.54805195 L51.7402597,8.04155844 L39.4535065,8.04155844 C39.0460414,8.01514745 38.6503016,8.184089 38.3875325,8.49662338 C38.1332671,8.84228845 38.0056091,9.26488018 38.025974,9.69350649 C38.025974,9.86181818 38.0633766,11.3516883 39.4784416,11.3516883 L48.4051948,11.3516883 C50.8550649,11.3516883 52.1454545,13.4025974 52.1454545,15.4285714 C52.1573567,16.4479229 51.8233342,17.4412004 51.1979221,18.2462338 C50.4616112,19.1481649 49.3510712,19.6608987 48.187013,19.6363636 Z" id="Path" fill="#61B63A"></path>
                    <path d="M147.908571,19.6363636 L135.571948,19.6363636 L135.571948,17.1428571 L147.908571,17.1428571 C148.316062,17.1720036 148.711978,16.9996635 148.968312,16.6815584 C149.231286,16.3197235 149.369158,15.8820343 149.361039,15.4348052 C149.361039,15.2727273 149.361039,13.8514286 148.114286,13.8514286 L139.168831,13.8514286 C136.581818,13.8514286 135.222857,11.7631169 135.222857,9.69974026 C135.208559,8.68555082 135.54801,7.69805858 136.182857,6.90701299 C136.920414,6.0244088 138.018864,5.52448822 139.168831,5.54805195 L151.480519,5.54805195 L151.480519,8.04155844 L139.168831,8.04155844 C138.762439,8.01092296 138.366729,8.18084579 138.109091,8.49662338 C137.842337,8.83983297 137.703471,9.2652469 137.716364,9.69974026 C137.716364,9.86805195 137.76,11.3579221 139.168831,11.3579221 L148.126753,11.3579221 C150.576623,11.3579221 151.867013,13.4088312 151.867013,15.4348052 C151.878915,16.4541567 151.544893,17.4474342 150.919481,18.2524675 C150.186094,19.1574455 149.072947,19.6690781 147.908571,19.6363636 Z" id="Path" fill="#61B63A"></path>
                    <polygon id="Path" fill="#354129" points="69.4254545 5.52935065 53.5231169 5.52935065 53.5231169 8.02285714 60.2306494 8.02285714 60.2306494 19.6550649 62.7241558 19.6550649 62.7241558 8.02285714 69.4254545 8.02285714"></polygon>
                    <path d="M84.96,19.6301299 L73.334026,19.6301299 C72.1565836,19.6301299 71.2020779,18.6756242 71.2020779,17.4981818 L71.2020779,5.51688312 L73.6955844,5.51688312 L73.6955844,17.1366234 L84.5984416,17.1366234 L84.5984416,5.51688312 L87.0919481,5.51688312 L87.0919481,17.4981818 C87.0885244,18.6742032 86.1360213,19.6267062 84.96,19.6301299 L84.96,19.6301299 Z" id="Path" fill="#354129"></path>
                    <path d="M184.675325,19.6301299 L173.049351,19.6301299 C171.874343,19.6266942 170.923631,18.6731941 170.923636,17.4981818 L170.923636,5.51688312 L173.417143,5.51688312 L173.417143,17.1366234 L184.313766,17.1366234 L184.313766,5.51688312 L186.807273,5.51688312 L186.807273,17.4981818 C186.807273,18.6756242 185.852767,19.6301299 184.675325,19.6301299 L184.675325,19.6301299 Z" id="Path" fill="#354129"></path>
                    <rect id="Rectangle" fill="#354129" x="106.528831" y="5.51688312" width="2.49350649" height="14.1194805"></rect>
                    <path d="M125.479481,19.6301299 L112.089351,19.6301299 C111.400788,19.6301299 110.842597,19.0719394 110.842597,18.3833766 L110.842597,6.76987013 C110.842597,6.08130732 111.400788,5.52311688 112.089351,5.52311688 L125.479481,5.52311688 C126.168043,5.52311688 126.726234,6.08130732 126.726234,6.76987013 L126.726234,18.3833766 C126.726234,19.0719394 126.168043,19.6301299 125.479481,19.6301299 Z M113.336104,17.1366234 L124.232727,17.1366234 L124.232727,8.01662338 L113.336104,8.01662338 L113.336104,17.1366234 Z" id="Shape" fill="#354129"></path>
                    <path d="M167.887792,5.55428571 L154.497662,5.55428571 C153.8091,5.55428571 153.250909,6.11247616 153.250909,6.80103896 L153.250909,18.3771429 C153.250909,19.0657057 153.8091,19.6238961 154.497662,19.6238961 L159.945974,19.6238961 L159.945974,21.9428571 L162.439481,21.9428571 L162.439481,19.6238961 L167.887792,19.6238961 C168.576355,19.6238961 169.134545,19.0657057 169.134545,18.3771429 L169.134545,6.80103896 C169.134545,6.11247616 168.576355,5.55428571 167.887792,5.55428571 Z M166.641039,17.1303896 L162.439481,17.1303896 L162.439481,15.8836364 L159.945974,15.8836364 L159.945974,17.1303896 L155.744416,17.1303896 L155.744416,8.04779221 L166.641039,8.04779221 L166.641039,17.1303896 Z" id="Shape" fill="#354129"></path>
                    <path d="M202.348052,5.54181818 L190.753247,5.54181818 C190.187819,5.54181818 189.64555,5.76643349 189.245732,6.16625131 C188.845914,6.56606913 188.621299,7.10833845 188.621299,7.67376623 L188.621299,19.6550649 L191.114805,19.6550649 L191.114805,13.358961 L201.974026,13.358961 L201.974026,19.6550649 L204.467532,19.6550649 L204.467532,7.67376623 C204.464163,6.50257672 203.519202,5.55205702 202.348052,5.54181818 L202.348052,5.54181818 Z M191.083636,10.8654545 L191.083636,8.03532468 L201.974026,8.03532468 L201.974026,10.8654545 L191.083636,10.8654545 Z" id="Shape" fill="#354129"></path>
                    <path d="M217.558442,19.6550649 L210.077922,13.041039 C209.693253,12.6966127 209.560692,12.1507131 209.744561,11.668228 C209.928431,11.1857429 210.390681,10.8665193 210.907013,10.8654545 L219.634286,10.8654545 L219.634286,8.01662338 L208.756364,8.01662338 L208.756364,19.6550649 L206.262857,19.6550649 L206.262857,6.76987013 C206.262857,6.08130732 206.821048,5.52311688 207.50961,5.52311688 L220.89974,5.52311688 C221.588303,5.52311688 222.146494,6.08130732 222.146494,6.76987013 L222.146494,12.1122078 C222.146494,12.8007706 221.588303,13.358961 220.89974,13.358961 L214.22961,13.358961 L221.342338,19.6550649 L217.558442,19.6550649 Z" id="Path" fill="#354129"></path>
                    <path d="M239.825455,8.01662338 L239.825455,5.52311688 L225.176104,5.52311688 C224.487541,5.52311688 223.929351,6.08130732 223.929351,6.76987013 L223.929351,18.4020779 C223.929351,19.0906407 224.487541,19.6488312 225.176104,19.6488312 L239.825455,19.6488312 L239.825455,17.1553247 L226.422857,17.1553247 L226.422857,13.8327273 L239.195844,13.8327273 L239.195844,11.3392208 L226.422857,11.3392208 L226.422857,8.01662338 L239.825455,8.01662338 Z" id="Path" fill="#354129"></path>
                    <path d="M103.511688,19.6301299 L88.8623377,19.6301299 L88.8623377,5.52311688 L103.511688,5.52311688 C104.200251,5.52311688 104.758442,6.08130732 104.758442,6.76987013 L104.758442,18.3833766 C104.758442,19.0719394 104.200251,19.6301299 103.511688,19.6301299 Z M91.3683117,17.1366234 L102.264935,17.1366234 L102.264935,8.01662338 L91.3683117,8.01662338 L91.3683117,17.1366234 Z" id="Shape" fill="#354129"></path>
                </g>
            </g>
        </g>
    </g>
</svg>